<?xml version="1.0" encoding="UTF-8"?>
<!DOCTYPE svg PUBLIC "-//W3C//DTD SVG 1.1//EN" "http://www.w3.org/Graphics/SVG/1.1/DTD/svg11.dtd">
<svg xmlns="http://www.w3.org/2000/svg" version="1.1" width="801px" height="112px" style="shape-rendering:geometricPrecision; text-rendering:geometricPrecision; image-rendering:optimizeQuality; fill-rule:evenodd; clip-rule:evenodd" xmlns:xlink="http://www.w3.org/1999/xlink">
<g><path style="opacity:1" fill="#010101" d="M -0.5,-0.5 C 266.5,-0.5 533.5,-0.5 800.5,-0.5C 800.5,1.83333 800.5,4.16667 800.5,6.5C 748.065,8.56356 700.398,24.5636 657.5,54.5C 634.324,70.3386 613.991,89.3386 596.5,111.5C 463.833,111.5 331.167,111.5 198.5,111.5C 181.009,89.3386 160.676,70.3386 137.5,54.5C 95.9212,26.0561 49.9212,10.0561 -0.5,6.5C -0.5,4.16667 -0.5,1.83333 -0.5,-0.5 Z"/></g>
<g><path style="opacity:1" fill="#1a1a1a" d="M -0.5,6.5 C 49.9212,10.0561 95.9212,26.0561 137.5,54.5C 123.202,63.6547 108.202,71.8214 92.5,79C 61.5018,79.5 30.5018,79.6666 -0.5,79.5C -0.5,55.1667 -0.5,30.8333 -0.5,6.5 Z"/></g>
<g><path style="opacity:1" fill="#1a1a1a" d="M 800.5,6.5 C 800.5,30.8333 800.5,55.1667 800.5,79.5C 767.832,79.6666 735.165,79.5 702.5,79C 686.862,71.8504 671.862,63.6837 657.5,54.5C 700.398,24.5636 748.065,8.56356 800.5,6.5 Z"/></g>
<g><path style="opacity:1" fill="#e2c153" d="M 320.5,81.5 C 319.509,75.021 319.176,68.3543 319.5,61.5C 315.915,60.4172 312.249,59.7506 308.5,59.5C 308.657,60.8734 308.49,62.2068 308,63.5C 307.768,62.2625 307.268,61.2625 306.5,60.5C 306.312,57.7939 305.312,55.4605 303.5,53.5C 303.833,51.5 304.167,49.5 304.5,47.5C 304.378,36.7585 299.045,32.7585 288.5,35.5C 283.877,34.3155 279.21,33.3155 274.5,32.5C 273.304,32.8457 273.304,33.3457 274.5,34C 273.906,34.4643 273.239,34.631 272.5,34.5C 271.833,34.5 271.167,34.5 270.5,34.5C 268.708,33.6909 266.708,33.1909 264.5,33C 266.167,32.6667 267.833,32.3333 269.5,32C 260.926,29.9599 252.26,28.4599 243.5,27.5C 243.741,29.8984 243.074,31.8984 241.5,33.5C 239.959,24.4133 243.293,17.9133 251.5,14C 271.167,13.3333 290.833,13.3333 310.5,14C 314.612,15.7786 317.778,18.6119 320,22.5C 320.5,42.1638 320.667,61.8305 320.5,81.5 Z"/></g>
<g><path style="opacity:1" fill="#0e0b04" d="M 304.5,47.5 C 303.778,47.9175 303.278,48.5842 303,49.5C 302.25,48.8742 301.416,48.3742 300.5,48C 300.254,40.7392 296.754,38.2392 290,40.5C 288.956,42.7148 288.29,45.0481 288,47.5C 287,48.1667 286,48.8333 285,49.5C 282.441,43.8222 283.608,39.1555 288.5,35.5C 299.045,32.7585 304.378,36.7585 304.5,47.5 Z"/></g>
<g><path style="opacity:1" fill="#dec053" d="M 504.5,32.5 C 517.543,32.3711 523.376,38.7044 522,51.5C 518.466,59.2297 514.966,66.8964 511.5,74.5C 509.396,74.7989 507.396,74.4656 505.5,73.5C 507.246,69.6733 509.246,66.0066 511.5,62.5C 497.337,61.5177 491.837,54.1843 495,40.5C 497.362,36.7553 500.528,34.0886 504.5,32.5 Z"/></g>
<g><path style="opacity:1" fill="#ddbf53" d="M 537.5,32.5 C 549.797,33.0829 553.464,39.0829 548.5,50.5C 554.534,57.1044 555.034,64.1044 550,71.5C 542.684,77.2804 536.017,76.6137 530,69.5C 525.901,62.246 527.068,55.9126 533.5,50.5C 528.65,43.1092 529.984,37.1092 537.5,32.5 Z"/></g>
<g><path style="opacity:1" fill="#120f06" d="M 537.5,37.5 C 546.402,37.5134 548.402,41.0134 543.5,48C 536.495,49.3236 533.995,46.4902 536,39.5C 536.717,38.9558 537.217,38.2891 537.5,37.5 Z"/></g>
<g><path style="opacity:1" fill="#090702" d="M 504.5,37.5 C 514.04,36.8703 518.206,41.2036 517,50.5C 514.232,56.1725 509.732,58.0058 503.5,56C 496.621,49.3498 496.955,43.1831 504.5,37.5 Z"/></g>
<g><path style="opacity:1" fill="#a78f3c" d="M 480.5,33.5 C 482.265,32.5386 484.265,32.2053 486.5,32.5C 486.828,44.6783 486.495,56.6783 485.5,68.5C 485.5,56.8333 485.5,45.1667 485.5,33.5C 483.833,33.5 482.167,33.5 480.5,33.5 Z"/></g>
<g><path style="opacity:1" fill="#e2c254" d="M 436.5,33.5 C 436.5,46.8333 436.5,60.1667 436.5,73.5C 434.833,73.5 433.167,73.5 431.5,73.5C 431.5,60.1667 431.5,46.8333 431.5,33.5C 433.167,33.5 434.833,33.5 436.5,33.5 Z"/></g>
<g><path style="opacity:1" fill="#d5b44d" d="M 357.5,32.5 C 369.125,31.7925 376.792,36.7925 380.5,47.5C 378.396,47.7989 376.396,47.4656 374.5,46.5C 366.287,36.4058 357.787,36.0725 349,45.5C 344.612,60.4292 350.112,67.9292 365.5,68C 369.255,66.4121 372.255,63.9121 374.5,60.5C 376.396,59.5344 378.396,59.2011 380.5,59.5C 378.421,67.7375 373.088,72.5708 364.5,74C 353.415,74.8672 345.915,70.0339 342,59.5C 339.691,49.7571 342.524,41.9238 350.5,36C 352.925,34.7874 355.259,33.6207 357.5,32.5 Z"/></g>
<g><path style="opacity:1" fill="#816e2d" d="M 436.5,33.5 C 434.833,33.5 433.167,33.5 431.5,33.5C 431.5,46.8333 431.5,60.1667 431.5,73.5C 433.167,73.5 434.833,73.5 436.5,73.5C 434.735,74.4614 432.735,74.7947 430.5,74.5C 430.5,60.5 430.5,46.5 430.5,32.5C 432.735,32.2053 434.735,32.5386 436.5,33.5 Z"/></g>
<g><path style="opacity:1" fill="#dfbf53" d="M 480.5,33.5 C 482.167,33.5 483.833,33.5 485.5,33.5C 485.5,45.1667 485.5,56.8333 485.5,68.5C 485.084,70.7525 483.751,72.2525 481.5,73C 477.409,74.2272 473.909,73.3939 471,70.5C 465.947,60.6702 461.28,50.6702 457,40.5C 455.333,39.1667 453.667,39.1667 452,40.5C 451.5,51.495 451.333,62.495 451.5,73.5C 449.833,73.5 448.167,73.5 446.5,73.5C 446.5,61.5 446.5,49.5 446.5,37.5C 449.824,32.3011 454.157,31.3011 459.5,34.5C 465.178,44.5234 470.345,54.8567 475,65.5C 476.396,67.5268 478.062,67.8602 480,66.5C 480.5,55.505 480.667,44.505 480.5,33.5 Z"/></g>
<g><path style="opacity:1" fill="#0e0b04" d="M 303.5,53.5 C 305.312,55.4605 306.312,57.7939 306.5,60.5C 304.715,72.8912 298.049,76.7245 286.5,72C 279.53,64.5923 279.863,57.5923 287.5,51C 293.401,48.5694 298.735,49.4028 303.5,53.5 Z"/></g>
<g><path style="opacity:1" fill="#a58c3b" d="M 446.5,37.5 C 446.5,49.5 446.5,61.5 446.5,73.5C 448.167,73.5 449.833,73.5 451.5,73.5C 449.735,74.4614 447.735,74.7947 445.5,74.5C 445.171,61.9887 445.505,49.6554 446.5,37.5 Z"/></g>
<g><path style="opacity:1" fill="#0b0803" d="M 537.5,53.5 C 546.207,53.0365 549.707,57.0365 548,65.5C 543.049,72.1541 538.049,72.1541 533,65.5C 531.474,60.2389 532.974,56.2389 537.5,53.5 Z"/></g>
<g><path style="opacity:1" fill="#151515" d="M 137.5,54.5 C 160.676,70.3386 181.009,89.3386 198.5,111.5C 132.167,111.5 65.8333,111.5 -0.5,111.5C -0.5,100.833 -0.5,90.1667 -0.5,79.5C 30.5018,79.6666 61.5018,79.5 92.5,79C 108.202,71.8214 123.202,63.6547 137.5,54.5 Z"/></g>
<g><path style="opacity:1" fill="#151515" d="M 657.5,54.5 C 671.862,63.6837 686.862,71.8504 702.5,79C 735.165,79.5 767.832,79.6666 800.5,79.5C 800.5,90.1667 800.5,100.833 800.5,111.5C 732.5,111.5 664.5,111.5 596.5,111.5C 613.991,89.3386 634.324,70.3386 657.5,54.5 Z"/></g>
<g><path style="opacity:1" fill="#d4b24c" d="M 290.5,54.5 C 298.161,53.663 301.661,56.9964 301,64.5C 297.455,70.2087 293.121,70.8754 288,66.5C 285.511,61.7565 286.345,57.7565 290.5,54.5 Z"/></g>
<g><path style="opacity:1" fill="#dab54d" d="M 270.5,34.5 C 257.104,35.3959 252.938,42.0626 258,54.5C 263.135,60.0499 268.969,60.8833 275.5,57C 282.947,48.2952 281.947,40.7952 272.5,34.5C 273.239,34.631 273.906,34.4643 274.5,34C 273.304,33.3457 273.304,32.8457 274.5,32.5C 279.21,33.3155 283.877,34.3155 288.5,35.5C 283.608,39.1555 282.441,43.8222 285,49.5C 286,48.8333 287,48.1667 288,47.5C 288.29,45.0481 288.956,42.7148 290,40.5C 296.754,38.2392 300.254,40.7392 300.5,48C 301.416,48.3742 302.25,48.8742 303,49.5C 303.278,48.5842 303.778,47.9175 304.5,47.5C 304.167,49.5 303.833,51.5 303.5,53.5C 298.735,49.4028 293.401,48.5694 287.5,51C 279.863,57.5923 279.53,64.5923 286.5,72C 298.049,76.7245 304.715,72.8912 306.5,60.5C 307.268,61.2625 307.768,62.2625 308,63.5C 308.49,62.2068 308.657,60.8734 308.5,59.5C 312.249,59.7506 315.915,60.4172 319.5,61.5C 319.176,68.3543 319.509,75.021 320.5,81.5C 319.893,87.8944 316.56,92.0611 310.5,94C 289.744,94.9763 269.077,94.6429 248.5,93C 245.255,91.0194 243.089,88.1861 242,84.5C 241.5,67.5033 241.333,50.5033 241.5,33.5C 243.074,31.8984 243.741,29.8984 243.5,27.5C 252.26,28.4599 260.926,29.9599 269.5,32C 267.833,32.3333 266.167,32.6667 264.5,33C 266.708,33.1909 268.708,33.6909 270.5,34.5 Z"/></g>
<g><path style="opacity:1" fill="#100d05" d="M 270.5,34.5 C 271.167,34.5 271.833,34.5 272.5,34.5C 281.947,40.7952 282.947,48.2952 275.5,57C 268.969,60.8833 263.135,60.0499 258,54.5C 252.938,42.0626 257.104,35.3959 270.5,34.5 Z"/></g>
<g><path style="opacity:1" fill="#d7b54e" d="M 264.5,39.5 C 272.161,38.663 275.661,41.9964 275,49.5C 271.455,55.2087 267.121,55.8754 262,51.5C 259.511,46.7565 260.345,42.7565 264.5,39.5 Z"/></g>
<g><path style="opacity:1" fill="#d7b74f" d="M 400.5,32.5 C 418.891,32.9411 426.724,42.2744 424,60.5C 417.064,73.3676 406.897,76.8676 393.5,71C 381.506,59.2914 381.506,47.6248 393.5,36C 395.925,34.7874 398.259,33.6207 400.5,32.5 Z"/></g>
<g><path style="opacity:1" fill="#050401" d="M 400.5,38.5 C 413.442,37.6097 419.609,43.6097 419,56.5C 414.791,67.4585 407.291,70.6252 396.5,66C 390.882,61.0712 389.049,54.9045 391,47.5C 393.406,43.5915 396.572,40.5915 400.5,38.5 Z"/></g>
<g><path style="opacity:1" fill="#100d04" d="M 257.5,63.5 C 259.167,63.5 260.833,63.5 262.5,63.5C 264.342,70.1038 267.842,71.1038 273,66.5C 273.483,65.552 273.649,64.552 273.5,63.5C 275.167,63.5 276.833,63.5 278.5,63.5C 276.979,73.0642 271.645,76.2308 262.5,73C 259.227,70.6806 257.56,67.514 257.5,63.5 Z"/></g>
</svg>
