<?xml version="1.0" encoding="UTF-8"?>
<!DOCTYPE svg PUBLIC "-//W3C//DTD SVG 1.1//EN" "http://www.w3.org/Graphics/SVG/1.1/DTD/svg11.dtd">
<svg xmlns="http://www.w3.org/2000/svg" version="1.1" width="801px" height="112px" style="shape-rendering:geometricPrecision; text-rendering:geometricPrecision; image-rendering:optimizeQuality; fill-rule:evenodd; clip-rule:evenodd" xmlns:xlink="http://www.w3.org/1999/xlink">
<g><path style="opacity:1" fill="#110d12" d="M -0.5,-0.5 C 6.83333,-0.5 14.1667,-0.5 21.5,-0.5C 36.0195,21.5248 50.3528,43.6915 64.5,66C 58.0141,74.4891 51.5141,82.9891 45,91.5C 30.3585,69.7082 15.1919,48.3749 -0.5,27.5C -0.5,18.1667 -0.5,8.83333 -0.5,-0.5 Z"/></g>
<g><path style="opacity:1" fill="#2b221c" d="M 21.5,-0.5 C 30.5,-0.5 39.5,-0.5 48.5,-0.5C 62.5772,21.9852 76.9105,44.3185 91.5,66.5C 80.2498,81.3411 69.2498,96.3411 58.5,111.5C 49.1667,111.5 39.8333,111.5 30.5,111.5C 30.6567,110.127 30.49,108.793 30,107.5C 20.0567,93.2556 9.88999,79.2556 -0.5,65.5C -0.5,52.8333 -0.5,40.1667 -0.5,27.5C 15.1919,48.3749 30.3585,69.7082 45,91.5C 51.5141,82.9891 58.0141,74.4891 64.5,66C 50.3528,43.6915 36.0195,21.5248 21.5,-0.5 Z"/></g>
<g><path style="opacity:1" fill="#110d12" d="M 48.5,-0.5 C 92.8333,-0.5 137.167,-0.5 181.5,-0.5C 152.5,36.8333 123.5,74.1667 94.5,111.5C 82.5,111.5 70.5,111.5 58.5,111.5C 69.2498,96.3411 80.2498,81.3411 91.5,66.5C 76.9105,44.3185 62.5772,21.9852 48.5,-0.5 Z"/></g>
<g><path style="opacity:1" fill="#2b221c" d="M 181.5,-0.5 C 186.833,-0.5 192.167,-0.5 197.5,-0.5C 190.617,36.7958 183.951,74.1291 177.5,111.5C 170.167,111.5 162.833,111.5 155.5,111.5C 158.385,93.7975 161.219,76.1308 164,58.5C 150.158,76.1969 136.325,93.8635 122.5,111.5C 113.167,111.5 103.833,111.5 94.5,111.5C 123.5,74.1667 152.5,36.8333 181.5,-0.5 Z"/></g>
<g><path style="opacity:1" fill="#110d12" d="M 197.5,-0.5 C 200.167,-0.5 202.833,-0.5 205.5,-0.5C 212.155,36.7862 218.489,74.1195 224.5,111.5C 208.833,111.5 193.167,111.5 177.5,111.5C 183.951,74.1291 190.617,36.7958 197.5,-0.5 Z"/></g>
<g><path style="opacity:1" fill="#2b221c" d="M 205.5,-0.5 C 208.833,-0.5 212.167,-0.5 215.5,-0.5C 244.524,36.8521 273.524,74.1854 302.5,111.5C 293.5,111.5 284.5,111.5 275.5,111.5C 264.084,96.3492 252.417,81.3492 240.5,66.5C 240.167,67 239.833,67.5 239.5,68C 242.223,82.505 244.889,97.005 247.5,111.5C 239.833,111.5 232.167,111.5 224.5,111.5C 218.489,74.1195 212.155,36.7862 205.5,-0.5 Z"/></g>
<g><path style="opacity:1" fill="#110d12" d="M 215.5,-0.5 C 265.5,-0.5 315.5,-0.5 365.5,-0.5C 348.723,25.451 331.723,51.2844 314.5,77C 323.383,88.3769 332.05,99.8769 340.5,111.5C 327.833,111.5 315.167,111.5 302.5,111.5C 273.524,74.1854 244.524,36.8521 215.5,-0.5 Z"/></g>
<g><path style="opacity:1" fill="#2b221c" d="M 365.5,-0.5 C 374.167,-0.5 382.833,-0.5 391.5,-0.5C 387.167,6.83333 382.833,14.1667 378.5,21.5C 377.442,20.3998 376.608,19.0664 376,17.5C 375.313,19.5675 375.48,21.5675 376.5,23.5C 374.265,25.1563 373.932,27.1563 375.5,29.5C 376.369,31.717 376.702,34.0504 376.5,36.5C 375.167,36.5 373.833,36.5 372.5,36.5C 370.537,35.0401 368.704,33.3734 367,31.5C 366.536,32.0944 366.369,32.7611 366.5,33.5C 368.087,37.0232 368.587,40.6899 368,44.5C 365.297,47.3714 362.464,50.0381 359.5,52.5C 357.634,51.9862 355.8,51.3195 354,50.5C 353.235,50.5699 352.735,50.9033 352.5,51.5C 353.441,53.0495 354.107,54.7162 354.5,56.5C 350.177,63.1383 345.844,69.805 341.5,76.5C 347.578,84.3227 353.411,92.3227 359,100.5C 360,101.833 361,101.833 362,100.5C 366.519,94.1083 371.019,87.7749 375.5,81.5C 379.313,82.1596 382.979,83.3262 386.5,85C 389.101,88.1117 392.101,90.6117 395.5,92.5C 397.167,93.5 398.5,94.8333 399.5,96.5C 397.606,95.9524 395.94,94.9524 394.5,93.5C 389.667,99.1759 385.334,105.176 381.5,111.5C 367.833,111.5 354.167,111.5 340.5,111.5C 332.05,99.8769 323.383,88.3769 314.5,77C 331.723,51.2844 348.723,25.451 365.5,-0.5 Z"/></g>
<g><path style="opacity:1" fill="#120e12" d="M 391.5,-0.5 C 402.167,-0.5 412.833,-0.5 423.5,-0.5C 440.072,24.3008 456.405,49.3008 472.5,74.5C 466.637,82.903 460.304,90.903 453.5,98.5C 445.982,90.3182 439.648,81.3182 434.5,71.5C 439.594,65.3903 443.928,58.7237 447.5,51.5C 447.265,50.9033 446.765,50.5699 446,50.5C 443.846,51.2741 441.679,51.9408 439.5,52.5C 437.205,49.7029 434.705,47.0362 432,44.5C 431.612,41.1508 431.779,37.8175 432.5,34.5C 433.303,33.5768 433.47,32.5768 433,31.5C 431.296,33.3734 429.463,35.0401 427.5,36.5C 425.41,36.5499 424.077,35.5499 423.5,33.5C 424.273,30.5692 425.273,27.7359 426.5,25C 425.244,24.5831 424.577,23.7498 424.5,22.5C 424.815,20.7741 424.981,19.1075 425,17.5C 422.971,21.5796 420.471,25.2463 417.5,28.5C 416.698,27.0484 416.198,25.3817 416,23.5C 415.283,24.0442 414.783,24.7109 414.5,25.5C 412.709,27.4133 410.709,29.08 408.5,30.5C 407.833,30.5 407.167,30.5 406.5,30.5C 405.105,31.8146 404.105,31.4812 403.5,29.5C 404.124,29.0831 404.457,28.4164 404.5,27.5C 403.781,22.5192 402.448,17.8525 400.5,13.5C 398.571,16.9841 397.238,21.9841 396.5,28.5C 396.253,29.7133 395.586,30.38 394.5,30.5C 393.833,30.5 393.167,30.5 392.5,30.5C 389.645,29.1664 387.145,27.1664 385,24.5C 384.536,25.0944 384.369,25.7611 384.5,26.5C 384.737,27.791 384.404,28.791 383.5,29.5C 381.333,27.1698 379.666,24.5032 378.5,21.5C 382.833,14.1667 387.167,6.83333 391.5,-0.5 Z"/></g>
<g><path style="opacity:1" fill="#2b221c" d="M 423.5,-0.5 C 432.167,-0.5 440.833,-0.5 449.5,-0.5C 465.748,25.0864 482.414,50.4197 499.5,75.5C 490.158,87.5301 480.825,99.5301 471.5,111.5C 459.5,111.5 447.5,111.5 435.5,111.5C 429.51,102.862 423.51,94.1956 417.5,85.5C 416.675,84.6143 415.675,84.281 414.5,84.5C 419.787,82.2346 425.287,80.2346 431,78.5C 432.832,76.4522 433.999,74.1189 434.5,71.5C 439.648,81.3182 445.982,90.3182 453.5,98.5C 460.304,90.903 466.637,82.903 472.5,74.5C 456.405,49.3008 440.072,24.3008 423.5,-0.5 Z"/></g>
<g><path style="opacity:1" fill="#110d12" d="M 449.5,-0.5 C 497.833,-0.5 546.167,-0.5 594.5,-0.5C 565.5,36.8333 536.5,74.1667 507.5,111.5C 495.5,111.5 483.5,111.5 471.5,111.5C 480.825,99.5301 490.158,87.5301 499.5,75.5C 482.414,50.4197 465.748,25.0864 449.5,-0.5 Z"/></g>
<g><path style="opacity:1" fill="#2b221c" d="M 594.5,-0.5 C 597.833,-0.5 601.167,-0.5 604.5,-0.5C 597.5,36.8333 590.5,74.1667 583.5,111.5C 576.5,111.5 569.5,111.5 562.5,111.5C 565.225,96.4817 567.725,81.4817 570,66.5C 558.284,81.3762 546.784,96.3762 535.5,111.5C 526.167,111.5 516.833,111.5 507.5,111.5C 536.5,74.1667 565.5,36.8333 594.5,-0.5 Z"/></g>
<g><path style="opacity:1" fill="#110d12" d="M 604.5,-0.5 C 607.167,-0.5 609.833,-0.5 612.5,-0.5C 619.393,36.7556 625.727,74.089 631.5,111.5C 615.5,111.5 599.5,111.5 583.5,111.5C 590.5,74.1667 597.5,36.8333 604.5,-0.5 Z"/></g>
<g><path style="opacity:1" fill="#2b221c" d="M 612.5,-0.5 C 618.5,-0.5 624.5,-0.5 630.5,-0.5C 659.476,36.8146 688.476,74.1479 717.5,111.5C 708.167,111.5 698.833,111.5 689.5,111.5C 675.093,92.3796 660.426,73.3796 645.5,54.5C 645.167,55 644.833,55.5 644.5,56C 647.788,74.5192 651.121,93.0192 654.5,111.5C 646.833,111.5 639.167,111.5 631.5,111.5C 625.727,74.089 619.393,36.7556 612.5,-0.5 Z"/></g>
<g><path style="opacity:1" fill="#110d12" d="M 630.5,-0.5 C 674.5,-0.5 718.5,-0.5 762.5,-0.5C 748.415,21.4332 734.082,43.2666 719.5,65C 730.566,79.062 741.233,93.3953 751.5,108C 751.011,109.138 750.678,110.305 750.5,111.5C 739.5,111.5 728.5,111.5 717.5,111.5C 688.476,74.1479 659.476,36.8146 630.5,-0.5 Z"/></g>
<g><path style="opacity:1" fill="#2b221c" d="M 762.5,-0.5 C 771.167,-0.5 779.833,-0.5 788.5,-0.5C 774.77,21.2802 760.77,42.9468 746.5,64.5C 752.602,73.0515 758.935,81.3848 765.5,89.5C 777.191,74.1481 788.858,58.8148 800.5,43.5C 800.5,55.8333 800.5,68.1667 800.5,80.5C 793.482,89.3509 786.816,98.5175 780.5,108C 780.978,109.303 781.645,110.469 782.5,111.5C 771.833,111.5 761.167,111.5 750.5,111.5C 750.678,110.305 751.011,109.138 751.5,108C 741.233,93.3953 730.566,79.062 719.5,65C 734.082,43.2666 748.415,21.4332 762.5,-0.5 Z"/></g>
<g><path style="opacity:1" fill="#110d12" d="M 788.5,-0.5 C 792.5,-0.5 796.5,-0.5 800.5,-0.5C 800.5,14.1667 800.5,28.8333 800.5,43.5C 788.858,58.8148 777.191,74.1481 765.5,89.5C 758.935,81.3848 752.602,73.0515 746.5,64.5C 760.77,42.9468 774.77,21.2802 788.5,-0.5 Z"/></g>
<g><path style="opacity:1" fill="#e6ca90" d="M 400.5,13.5 C 400.5,19.5 400.5,25.5 400.5,31.5C 400.81,34.7131 400.477,37.7131 399.5,40.5C 397.833,37.1667 396.167,33.8333 394.5,30.5C 395.586,30.38 396.253,29.7133 396.5,28.5C 397.238,21.9841 398.571,16.9841 400.5,13.5 Z"/></g>
<g><path style="opacity:1" fill="#8f591e" d="M 400.5,13.5 C 402.448,17.8525 403.781,22.5192 404.5,27.5C 404.457,28.4164 404.124,29.0831 403.5,29.5C 403.565,29.0618 403.399,28.7284 403,28.5C 402.148,29.5707 401.315,30.5707 400.5,31.5C 400.5,25.5 400.5,19.5 400.5,13.5 Z"/></g>
<g><path style="opacity:1" fill="#ccaf77" d="M 424.5,22.5 C 423.542,24.3024 422.875,26.3024 422.5,28.5C 420.486,28.3915 418.82,29.0582 417.5,30.5C 417.5,29.8333 417.5,29.1667 417.5,28.5C 420.471,25.2463 422.971,21.5796 425,17.5C 424.981,19.1075 424.815,20.7741 424.5,22.5 Z"/></g>
<g><path style="opacity:1" fill="#c0a16b" d="M 378.5,21.5 C 379.666,24.5032 381.333,27.1698 383.5,29.5C 383.326,32.763 381.659,34.4296 378.5,34.5C 378.477,32.0733 377.977,29.74 377,27.5C 376.722,28.4158 376.222,29.0825 375.5,29.5C 373.932,27.1563 374.265,25.1563 376.5,23.5C 375.48,21.5675 375.313,19.5675 376,17.5C 376.608,19.0664 377.442,20.3998 378.5,21.5 Z"/></g>
<g><path style="opacity:1" fill="#e5cb94" d="M 392.5,30.5 C 392.611,31.1174 392.944,31.6174 393.5,32C 391.248,34.7361 389.248,37.5695 387.5,40.5C 387.5,39.5 387.5,38.5 387.5,37.5C 386.945,33.6032 385.945,29.9365 384.5,26.5C 384.369,25.7611 384.536,25.0944 385,24.5C 387.145,27.1664 389.645,29.1664 392.5,30.5 Z"/></g>
<g><path style="opacity:1" fill="#eacf96" d="M 414.5,25.5 C 415.124,25.9169 415.457,26.5836 415.5,27.5C 414.703,30.8204 414.036,34.1538 413.5,37.5C 412.603,38.5981 411.77,38.5981 411,37.5C 409.833,35.6667 408.667,33.8333 407.5,32C 408.056,31.6174 408.389,31.1174 408.5,30.5C 410.709,29.08 412.709,27.4133 414.5,25.5 Z"/></g>
<g><path style="opacity:1" fill="#89602d" d="M 384.5,26.5 C 385.945,29.9365 386.945,33.6032 387.5,37.5C 386.21,36.9423 385.377,35.9423 385,34.5C 382.79,36.9852 383.29,38.8185 386.5,40C 384.928,43.4174 383.761,43.2507 383,39.5C 381.853,40.4581 380.853,40.1247 380,38.5C 379.59,37.0993 379.09,35.766 378.5,34.5C 381.659,34.4296 383.326,32.763 383.5,29.5C 384.404,28.791 384.737,27.791 384.5,26.5 Z"/></g>
<g><path style="opacity:1" fill="#dcc69c" d="M 372.5,36.5 C 374.246,37.0013 375.246,37.6679 375.5,38.5C 373.801,38.6602 372.134,38.4935 370.5,38C 369.267,36.3333 367.933,34.8333 366.5,33.5C 366.369,32.7611 366.536,32.0944 367,31.5C 368.704,33.3734 370.537,35.0401 372.5,36.5 Z"/></g>
<g><path style="opacity:1" fill="#7f5c2b" d="M 392.5,30.5 C 393.167,30.5 393.833,30.5 394.5,30.5C 396.167,33.8333 397.833,37.1667 399.5,40.5C 399.631,41.2389 399.464,41.9056 399,42.5C 398.29,41.0267 397.124,40.3601 395.5,40.5C 397.05,37.8283 396.55,35.4949 394,33.5C 392.505,35.1096 392.339,36.7763 393.5,38.5C 392.06,39.9524 390.394,40.9524 388.5,41.5C 387.833,41.5 387.5,41.1667 387.5,40.5C 389.248,37.5695 391.248,34.7361 393.5,32C 392.944,31.6174 392.611,31.1174 392.5,30.5 Z"/></g>
<g><path style="opacity:1" fill="#d4bb8f" d="M 432.5,34.5 C 430.974,37.8926 428.307,39.2259 424.5,38.5C 424.754,37.6679 425.754,37.0013 427.5,36.5C 429.463,35.0401 431.296,33.3734 433,31.5C 433.47,32.5768 433.303,33.5768 432.5,34.5 Z"/></g>
<g><path style="opacity:1" fill="#946f3a" d="M 406.5,30.5 C 407.167,30.5 407.833,30.5 408.5,30.5C 408.389,31.1174 408.056,31.6174 407.5,32C 408.667,33.8333 409.833,35.6667 411,37.5C 411.77,38.5981 412.603,38.5981 413.5,37.5C 413.306,40.3297 412.639,42.9963 411.5,45.5C 410.833,45.5 410.167,45.5 409.5,45.5C 409.5,43.8333 409.5,42.1667 409.5,40.5C 406.606,40.0423 404.106,40.709 402,42.5C 401.833,42 401.667,41.5 401.5,41C 402.704,37.1908 404.371,33.6908 406.5,30.5 Z"/></g>
<g><path style="opacity:1" fill="#3e3f3c" d="M 371.5,40.5 C 373.167,40.5 374.833,40.5 376.5,40.5C 377.836,42.0103 379.003,43.6769 380,45.5C 380.816,46.8228 381.983,47.4894 383.5,47.5C 383.279,50.2788 383.612,52.9455 384.5,55.5C 383.075,57.0311 382.409,56.6977 382.5,54.5C 382.673,49.6766 380.339,47.6766 375.5,48.5C 375.5,51.1667 375.5,53.8333 375.5,56.5C 376.5,56.5 377.5,56.5 378.5,56.5C 377.432,57.4345 376.099,57.7678 374.5,57.5C 374.5,55.5 374.5,53.5 374.5,51.5C 372.076,51.8076 369.743,51.4742 367.5,50.5C 368.63,49.3777 369.297,48.0443 369.5,46.5C 371.081,44.8583 371.747,42.8583 371.5,40.5 Z"/></g>
<g><path style="opacity:1" fill="#58401b" d="M 378.5,34.5 C 379.09,35.766 379.59,37.0993 380,38.5C 380.853,40.1247 381.853,40.4581 383,39.5C 383.761,43.2507 384.928,43.4174 386.5,40C 383.29,38.8185 382.79,36.9852 385,34.5C 385.377,35.9423 386.21,36.9423 387.5,37.5C 387.5,38.5 387.5,39.5 387.5,40.5C 387.5,41.1667 387.833,41.5 388.5,41.5C 390.138,42.7046 390.471,44.0379 389.5,45.5C 385.529,45.3452 382.195,43.8452 379.5,41C 378.552,40.5172 377.552,40.3505 376.5,40.5C 374.833,40.5 373.167,40.5 371.5,40.5C 372.833,39.8333 374.167,39.1667 375.5,38.5C 375.246,37.6679 374.246,37.0013 372.5,36.5C 373.833,36.5 375.167,36.5 376.5,36.5C 376.702,34.0504 376.369,31.717 375.5,29.5C 376.222,29.0825 376.722,28.4158 377,27.5C 377.977,29.74 378.477,32.0733 378.5,34.5 Z"/></g>
<g><path style="opacity:1" fill="#60441e" d="M 424.5,22.5 C 424.577,23.7498 425.244,24.5831 426.5,25C 425.273,27.7359 424.273,30.5692 423.5,33.5C 424.077,35.5499 425.41,36.5499 427.5,36.5C 425.754,37.0013 424.754,37.6679 424.5,38.5C 425.833,39.1667 427.167,39.8333 428.5,40.5C 424.244,39.9777 420.577,41.1444 417.5,44C 415.414,44.3153 413.414,44.8153 411.5,45.5C 412.639,42.9963 413.306,40.3297 413.5,37.5C 414.036,34.1538 414.703,30.8204 415.5,27.5C 415.457,26.5836 415.124,25.9169 414.5,25.5C 414.783,24.7109 415.283,24.0442 416,23.5C 416.198,25.3817 416.698,27.0484 417.5,28.5C 417.5,29.1667 417.5,29.8333 417.5,30.5C 417.961,32.5504 418.628,34.5504 419.5,36.5C 418.332,38.2174 416.665,38.8841 414.5,38.5C 414.59,43.3892 415.756,43.7225 418,39.5C 418.667,40.8333 419.333,40.8333 420,39.5C 421.049,35.8675 421.882,32.2008 422.5,28.5C 422.875,26.3024 423.542,24.3024 424.5,22.5 Z"/></g>
<g><path style="opacity:1" fill="#a07a44" d="M 422.5,28.5 C 421.882,32.2008 421.049,35.8675 420,39.5C 419.333,40.8333 418.667,40.8333 418,39.5C 415.756,43.7225 414.59,43.3892 414.5,38.5C 416.665,38.8841 418.332,38.2174 419.5,36.5C 418.628,34.5504 417.961,32.5504 417.5,30.5C 418.82,29.0582 420.486,28.3915 422.5,28.5 Z"/></g>
<g><path style="opacity:1" fill="#1a1a19" d="M 376.5,40.5 C 377.552,40.3505 378.552,40.5172 379.5,41C 382.195,43.8452 385.529,45.3452 389.5,45.5C 396.18,46.7906 402.846,46.7906 409.5,45.5C 410.167,45.5 410.833,45.5 411.5,45.5C 413.414,44.8153 415.414,44.3153 417.5,44C 420.577,41.1444 424.244,39.9777 428.5,40.5C 428.5,41.8333 428.5,43.1667 428.5,44.5C 427.596,43.791 427.263,42.791 427.5,41.5C 423.773,41.8649 421.439,43.8649 420.5,47.5C 420.167,47.5 419.833,47.5 419.5,47.5C 414.056,47.4607 408.723,48.1273 403.5,49.5C 403.289,47.5759 402.623,47.2426 401.5,48.5C 401.5,49.5 401.5,50.5 401.5,51.5C 400.5,51.5 399.5,51.5 398.5,51.5C 397.325,51.719 396.325,51.3857 395.5,50.5C 396.833,49.8333 398.167,49.1667 399.5,48.5C 398.5,48.1667 397.5,47.8333 396.5,47.5C 394.97,47.6399 393.97,48.3065 393.5,49.5C 392.833,49.5 392.167,49.5 391.5,49.5C 391.289,47.5759 390.623,47.2426 389.5,48.5C 389.662,50.5273 389.495,52.5273 389,54.5C 388.586,54.9574 388.086,55.2907 387.5,55.5C 386.266,52.705 384.933,50.0384 383.5,47.5C 381.983,47.4894 380.816,46.8228 380,45.5C 379.003,43.6769 377.836,42.0103 376.5,40.5 Z"/></g>
<g><path style="opacity:1" fill="#ac7f3c" d="M 366.5,33.5 C 367.933,34.8333 369.267,36.3333 370.5,38C 372.134,38.4935 373.801,38.6602 375.5,38.5C 374.167,39.1667 372.833,39.8333 371.5,40.5C 371.747,42.8583 371.081,44.8583 369.5,46.5C 366.529,48.4426 364.529,51.1092 363.5,54.5C 362.005,54.0113 360.671,53.3446 359.5,52.5C 362.464,50.0381 365.297,47.3714 368,44.5C 368.587,40.6899 368.087,37.0232 366.5,33.5 Z"/></g>
<g><path style="opacity:1" fill="#c59a56" d="M 403.5,29.5 C 404.105,31.4812 405.105,31.8146 406.5,30.5C 404.371,33.6908 402.704,37.1908 401.5,41C 401.667,41.5 401.833,42 402,42.5C 404.106,40.709 406.606,40.0423 409.5,40.5C 409.5,42.1667 409.5,43.8333 409.5,45.5C 402.846,46.7906 396.18,46.7906 389.5,45.5C 390.471,44.0379 390.138,42.7046 388.5,41.5C 390.394,40.9524 392.06,39.9524 393.5,38.5C 392.339,36.7763 392.505,35.1096 394,33.5C 396.55,35.4949 397.05,37.8283 395.5,40.5C 397.124,40.3601 398.29,41.0267 399,42.5C 399.464,41.9056 399.631,41.2389 399.5,40.5C 400.477,37.7131 400.81,34.7131 400.5,31.5C 401.315,30.5707 402.148,29.5707 403,28.5C 403.399,28.7284 403.565,29.0618 403.5,29.5 Z"/></g>
<g><path style="opacity:1" fill="#ae8342" d="M 432.5,34.5 C 431.779,37.8175 431.612,41.1508 432,44.5C 434.705,47.0362 437.205,49.7029 439.5,52.5C 438.71,53.4013 437.71,54.0679 436.5,54.5C 434.967,50.296 432.3,46.9626 428.5,44.5C 428.5,43.1667 428.5,41.8333 428.5,40.5C 427.167,39.8333 425.833,39.1667 424.5,38.5C 428.307,39.2259 430.974,37.8926 432.5,34.5 Z"/></g>
<g><path style="opacity:1" fill="#c7b181" d="M 401.5,48.5 C 402.167,50.8333 402.833,53.1667 403.5,55.5C 404.833,55.5 406.167,55.5 407.5,55.5C 407.5,55.8333 407.5,56.1667 407.5,56.5C 405.5,56.5 403.5,56.5 401.5,56.5C 401.5,54.8333 401.5,53.1667 401.5,51.5C 401.5,50.5 401.5,49.5 401.5,48.5 Z"/></g>
<g><path style="opacity:1" fill="#7e5a2d" d="M 389.5,48.5 C 390.623,47.2426 391.289,47.5759 391.5,49.5C 391.784,51.4147 391.451,53.0813 390.5,54.5C 390.795,52.2646 390.461,50.2646 389.5,48.5 Z"/></g>
<g><path style="opacity:1" fill="#ac9468" d="M 398.5,51.5 C 397.993,52.8589 396.993,53.8589 395.5,54.5C 396.729,55.2811 398.062,55.7811 399.5,56C 397.527,56.4955 395.527,56.6621 393.5,56.5C 393.5,54.1667 393.5,51.8333 393.5,49.5C 393.97,48.3065 394.97,47.6399 396.5,47.5C 397.5,47.8333 398.5,48.1667 399.5,48.5C 398.167,49.1667 396.833,49.8333 395.5,50.5C 396.325,51.3857 397.325,51.719 398.5,51.5 Z"/></g>
<g><path style="opacity:1" fill="#342e27" d="M 391.5,49.5 C 392.167,49.5 392.833,49.5 393.5,49.5C 393.5,51.8333 393.5,54.1667 393.5,56.5C 395.527,56.6621 397.527,56.4955 399.5,56C 398.062,55.7811 396.729,55.2811 395.5,54.5C 396.993,53.8589 397.993,52.8589 398.5,51.5C 399.5,51.5 400.5,51.5 401.5,51.5C 401.5,53.1667 401.5,54.8333 401.5,56.5C 403.5,56.5 405.5,56.5 407.5,56.5C 405.708,57.3091 403.708,57.8091 401.5,58C 402.5,58.3333 403.5,58.6667 404.5,59C 403.748,59.6708 403.414,60.5041 403.5,61.5C 402.143,60.3146 400.643,59.3146 399,58.5C 398.5,58.8333 398,59.1667 397.5,59.5C 398.127,60.4168 398.461,61.4168 398.5,62.5C 398.5,65.8333 398.5,69.1667 398.5,72.5C 398.167,72.5 397.833,72.5 397.5,72.5C 397.5,68.8333 397.5,65.1667 397.5,61.5C 396.5,61.5 395.5,61.5 394.5,61.5C 394.5,65.1667 394.5,68.8333 394.5,72.5C 393.834,68.3155 393.167,63.9822 392.5,59.5C 391.893,59.6236 391.56,59.9569 391.5,60.5C 390.957,60.44 390.624,60.1067 390.5,59.5C 394.29,57.8962 393.956,56.8962 389.5,56.5C 389.833,55.8333 390.167,55.1667 390.5,54.5C 391.451,53.0813 391.784,51.4147 391.5,49.5 Z"/></g>
<g><path style="opacity:1" fill="#c09c64" d="M 382.5,54.5 C 381.395,55.6005 380.062,56.2671 378.5,56.5C 377.5,56.5 376.5,56.5 375.5,56.5C 375.5,53.8333 375.5,51.1667 375.5,48.5C 380.339,47.6766 382.673,49.6766 382.5,54.5 Z"/></g>
<g><path style="opacity:1" fill="#383630" d="M 376.5,49.5 C 380.35,49.7007 381.35,51.5341 379.5,55C 378.552,55.4828 377.552,55.6495 376.5,55.5C 376.5,53.5 376.5,51.5 376.5,49.5 Z"/></g>
<g><path style="opacity:1" fill="#dcc390" d="M 352.5,51.5 C 352.735,50.9033 353.235,50.5699 354,50.5C 355.8,51.3195 357.634,51.9862 359.5,52.5C 360.671,53.3446 362.005,54.0113 363.5,54.5C 364.6,55.6049 365.267,56.9382 365.5,58.5C 364.391,58.4431 363.391,58.1098 362.5,57.5C 359.506,55.0002 356.173,53.0002 352.5,51.5 Z"/></g>
<g><path style="opacity:1" fill="#795f32" d="M 401.5,48.5 C 402.623,47.2426 403.289,47.5759 403.5,49.5C 403.5,51.5 403.5,53.5 403.5,55.5C 402.833,53.1667 402.167,50.8333 401.5,48.5 Z"/></g>
<g><path style="opacity:1" fill="#d6bc8b" d="M 447.5,51.5 C 443.827,53.0002 440.494,55.0002 437.5,57.5C 436.5,58.1667 435.5,58.8333 434.5,59.5C 434.062,59.5654 433.728,59.3988 433.5,59C 434.386,57.3853 435.386,55.8853 436.5,54.5C 437.71,54.0679 438.71,53.4013 439.5,52.5C 441.679,51.9408 443.846,51.2741 446,50.5C 446.765,50.5699 447.265,50.9033 447.5,51.5 Z"/></g>
<g><path style="opacity:1" fill="#ba9d68" d="M 383.5,47.5 C 384.933,50.0384 386.266,52.705 387.5,55.5C 388.086,55.2907 388.586,54.9574 389,54.5C 389.495,52.5273 389.662,50.5273 389.5,48.5C 390.461,50.2646 390.795,52.2646 390.5,54.5C 390.167,55.1667 389.833,55.8333 389.5,56.5C 389.167,56.5 388.833,56.5 388.5,56.5C 387.041,56.5674 385.708,56.2341 384.5,55.5C 383.612,52.9455 383.279,50.2788 383.5,47.5 Z"/></g>
<g><path style="opacity:1" fill="#383834" d="M 428.5,44.5 C 432.3,46.9626 434.967,50.296 436.5,54.5C 435.386,55.8853 434.386,57.3853 433.5,59C 433.728,59.3988 434.062,59.5654 434.5,59.5C 433.434,60.6921 432.601,60.3588 432,58.5C 430.052,59.1094 428.218,59.776 426.5,60.5C 425.29,60.0679 424.29,59.4013 423.5,58.5C 421.091,57.7574 418.091,57.0907 414.5,56.5C 416.635,56.853 417.968,56.0197 418.5,54C 417.387,52.6057 416.053,51.439 414.5,50.5C 415.833,50.1667 417.167,49.8333 418.5,49.5C 416.122,48.0437 414.122,48.3771 412.5,50.5C 413.472,52.6365 415.139,53.8032 417.5,54C 416.975,54.6924 416.308,55.1924 415.5,55.5C 413.114,54.0116 412.448,54.3449 413.5,56.5C 411.169,57.9952 409.169,57.6618 407.5,55.5C 406.167,55.5 404.833,55.5 403.5,55.5C 403.5,53.5 403.5,51.5 403.5,49.5C 408.723,48.1273 414.056,47.4607 419.5,47.5C 419.821,49.0481 420.821,49.7148 422.5,49.5C 422.192,51.924 422.526,54.2573 423.5,56.5C 424.078,53.6313 425.078,50.9647 426.5,48.5C 424.604,47.5344 422.604,47.2011 420.5,47.5C 421.439,43.8649 423.773,41.8649 427.5,41.5C 427.263,42.791 427.596,43.791 428.5,44.5 Z"/></g>
<g><path style="opacity:1" fill="#a18757" d="M 419.5,47.5 C 419.833,47.5 420.167,47.5 420.5,47.5C 422.604,47.2011 424.604,47.5344 426.5,48.5C 425.078,50.9647 424.078,53.6313 423.5,56.5C 422.526,54.2573 422.192,51.924 422.5,49.5C 420.821,49.7148 419.821,49.0481 419.5,47.5 Z"/></g>
<g><path style="opacity:1" fill="#b99660" d="M 414.5,56.5 C 414.167,56.5 413.833,56.5 413.5,56.5C 412.448,54.3449 413.114,54.0116 415.5,55.5C 416.308,55.1924 416.975,54.6924 417.5,54C 415.139,53.8032 413.472,52.6365 412.5,50.5C 414.122,48.3771 416.122,48.0437 418.5,49.5C 417.167,49.8333 415.833,50.1667 414.5,50.5C 416.053,51.439 417.387,52.6057 418.5,54C 417.968,56.0197 416.635,56.853 414.5,56.5 Z"/></g>
<g><path style="opacity:1" fill="#2d2b28" d="M 369.5,46.5 C 369.297,48.0443 368.63,49.3777 367.5,50.5C 369.743,51.4742 372.076,51.8076 374.5,51.5C 374.5,53.5 374.5,55.5 374.5,57.5C 376.099,57.7678 377.432,57.4345 378.5,56.5C 380.062,56.2671 381.395,55.6005 382.5,54.5C 382.409,56.6977 383.075,57.0311 384.5,55.5C 385.708,56.2341 387.041,56.5674 388.5,56.5C 387.5,57.1667 386.5,57.8333 385.5,58.5C 384.167,58.5 383.5,59.1667 383.5,60.5C 380.283,65.9791 378.616,65.6458 378.5,59.5C 377.852,58.2203 376.519,58.2203 374.5,59.5C 372.647,58.9246 370.814,58.5912 369,58.5C 367.646,60.9896 366.479,60.9896 365.5,58.5C 365.267,56.9382 364.6,55.6049 363.5,54.5C 364.529,51.1092 366.529,48.4426 369.5,46.5 Z"/></g>
<g><path style="opacity:1" fill="#110d12" d="M 689.5,111.5 C 677.833,111.5 666.167,111.5 654.5,111.5C 651.121,93.0192 647.788,74.5192 644.5,56C 644.833,55.5 645.167,55 645.5,54.5C 660.426,73.3796 675.093,92.3796 689.5,111.5 Z"/></g>
<g><path style="opacity:1" fill="#120d12" d="M 354.5,56.5 C 357.757,60.9345 361.257,65.2678 365,69.5C 366.016,72.5678 367.183,75.5678 368.5,78.5C 371.016,79.3299 373.35,80.3299 375.5,81.5C 371.019,87.7749 366.519,94.1083 362,100.5C 361,101.833 360,101.833 359,100.5C 353.411,92.3227 347.578,84.3227 341.5,76.5C 345.844,69.805 350.177,63.1383 354.5,56.5 Z"/></g>
<g><path style="opacity:1" fill="#110d12" d="M 155.5,111.5 C 144.5,111.5 133.5,111.5 122.5,111.5C 136.325,93.8635 150.158,76.1969 164,58.5C 161.219,76.1308 158.385,93.7975 155.5,111.5 Z"/></g>
<g><path style="opacity:1" fill="#e0c487" d="M 361.5,58.5 C 363.895,61.8615 366.895,64.5281 370.5,66.5C 369.71,67.4013 368.71,68.0679 367.5,68.5C 364.536,66.0381 361.703,63.3714 359,60.5C 358.406,57.7811 359.24,57.1144 361.5,58.5 Z"/></g>
<g><path style="opacity:1" fill="#1e1c1a" d="M 437.5,57.5 C 438.167,57.5 438.5,57.8333 438.5,58.5C 436.105,61.8615 433.105,64.5281 429.5,66.5C 428.566,67.5676 428.232,68.901 428.5,70.5C 427.539,68.7354 427.205,66.7354 427.5,64.5C 424.615,64.1936 421.948,64.5269 419.5,65.5C 419.5,65.8333 419.5,66.1667 419.5,66.5C 418.957,66.56 418.624,66.8933 418.5,67.5C 420.655,68.0014 422.322,69.0014 423.5,70.5C 418.297,72.1445 415.797,70.1445 416,64.5C 418.382,61.1523 421.049,60.819 424,63.5C 425.045,62.6266 425.878,61.6266 426.5,60.5C 428.218,59.776 430.052,59.1094 432,58.5C 432.601,60.3588 433.434,60.6921 434.5,59.5C 435.5,58.8333 436.5,58.1667 437.5,57.5 Z"/></g>
<g><path style="opacity:1" fill="#e4cb95" d="M 432.5,68.5 C 430.973,68.573 429.973,67.9063 429.5,66.5C 433.105,64.5281 436.105,61.8615 438.5,58.5C 440.76,57.1144 441.594,57.7811 441,60.5C 438.297,63.3714 435.464,66.0381 432.5,68.5 Z"/></g>
<g><path style="opacity:1" fill="#110d12" d="M -0.5,65.5 C 9.88999,79.2556 20.0567,93.2556 30,107.5C 30.49,108.793 30.6567,110.127 30.5,111.5C 20.1667,111.5 9.83333,111.5 -0.5,111.5C -0.5,96.1667 -0.5,80.8333 -0.5,65.5 Z"/></g>
<g><path style="opacity:1" fill="#1a1916" d="M 407.5,55.5 C 409.169,57.6618 411.169,57.9952 413.5,56.5C 413.833,56.5 414.167,56.5 414.5,56.5C 418.091,57.0907 421.091,57.7574 423.5,58.5C 416.015,58.4831 412.515,62.1498 413,69.5C 416.762,75.2863 421.262,75.9529 426.5,71.5C 426.833,71.5 427.167,71.5 427.5,71.5C 427.5,72.8333 427.5,74.1667 427.5,75.5C 423.421,76.6373 419.421,77.9706 415.5,79.5C 415.649,78.448 415.483,77.448 415,76.5C 409.989,82.3423 404.823,88.0089 399.5,93.5C 395.188,88.0201 390.688,82.6868 386,77.5C 385.612,78.428 384.945,79.0946 384,79.5C 380.199,78.0132 376.365,76.6799 372.5,75.5C 372.58,72.2186 371.913,69.2186 370.5,66.5C 366.895,64.5281 363.895,61.8615 361.5,58.5C 361.5,57.8333 361.833,57.5 362.5,57.5C 363.391,58.1098 364.391,58.4431 365.5,58.5C 366.479,60.9896 367.646,60.9896 369,58.5C 370.814,58.5912 372.647,58.9246 374.5,59.5C 375.824,64.2337 375.824,69.0671 374.5,74C 376.743,74.7966 378.077,74.6299 378.5,73.5C 378.051,71.0225 378.717,69.0225 380.5,67.5C 383.125,69.0814 384.458,71.4148 384.5,74.5C 385.978,74.762 387.311,74.4287 388.5,73.5C 386.797,70.8095 385.13,68.1428 383.5,65.5C 384.095,63.2385 385.429,61.5719 387.5,60.5C 388.043,60.44 388.376,60.1067 388.5,59.5C 387.675,58.6143 386.675,58.281 385.5,58.5C 386.5,57.8333 387.5,57.1667 388.5,56.5C 388.833,56.5 389.167,56.5 389.5,56.5C 393.956,56.8962 394.29,57.8962 390.5,59.5C 390.624,60.1067 390.957,60.44 391.5,60.5C 391.8,65.0986 391.467,69.5986 390.5,74C 392.167,74.6667 393.833,74.6667 395.5,74C 394.944,73.6174 394.611,73.1174 394.5,72.5C 394.5,68.8333 394.5,65.1667 394.5,61.5C 395.5,61.5 396.5,61.5 397.5,61.5C 397.5,65.1667 397.5,68.8333 397.5,72.5C 396.357,74.1007 397.024,74.7674 399.5,74.5C 402.866,74.6083 403.2,73.9416 400.5,72.5C 400.187,69.7531 400.52,67.0865 401.5,64.5C 404.096,68.0191 406.929,71.3525 410,74.5C 410.498,71.5184 410.665,68.5184 410.5,65.5C 410.244,63.2075 410.577,61.0408 411.5,59C 409.833,58.3333 408.167,58.3333 406.5,59C 407.814,61.6047 407.814,64.1047 406.5,66.5C 405.488,65.1283 404.488,63.795 403.5,62.5C 403.5,62.1667 403.5,61.8333 403.5,61.5C 403.414,60.5041 403.748,59.6708 404.5,59C 403.5,58.6667 402.5,58.3333 401.5,58C 403.708,57.8091 405.708,57.3091 407.5,56.5C 407.5,56.1667 407.5,55.8333 407.5,55.5 Z"/></g>
<g><path style="opacity:1" fill="#ce8c33" d="M 398.5,62.5 C 400.167,62.5 401.833,62.5 403.5,62.5C 404.488,63.795 405.488,65.1283 406.5,66.5C 406.56,67.0431 406.893,67.3764 407.5,67.5C 408.265,66.3881 409.265,65.7214 410.5,65.5C 410.665,68.5184 410.498,71.5184 410,74.5C 406.929,71.3525 404.096,68.0191 401.5,64.5C 400.52,67.0865 400.187,69.7531 400.5,72.5C 399.833,73.8333 399.167,73.8333 398.5,72.5C 398.5,69.1667 398.5,65.8333 398.5,62.5 Z"/></g>
<g><path style="opacity:1" fill="#b6894f" d="M 410.5,65.5 C 409.265,65.7214 408.265,66.3881 407.5,67.5C 406.893,67.3764 406.56,67.0431 406.5,66.5C 407.814,64.1047 407.814,61.6047 406.5,59C 408.167,58.3333 409.833,58.3333 411.5,59C 410.577,61.0408 410.244,63.2075 410.5,65.5 Z"/></g>
<g><path style="opacity:1" fill="#d39540" d="M 378.5,59.5 C 378.616,65.6458 380.283,65.9791 383.5,60.5C 384.961,59.3143 386.295,59.3143 387.5,60.5C 385.429,61.5719 384.095,63.2385 383.5,65.5C 385.13,68.1428 386.797,70.8095 388.5,73.5C 387.311,74.4287 385.978,74.762 384.5,74.5C 384.458,71.4148 383.125,69.0814 380.5,67.5C 378.717,69.0225 378.051,71.0225 378.5,73.5C 377.195,71.6028 376.529,69.2695 376.5,66.5C 376.529,63.7305 377.195,61.3972 378.5,59.5 Z"/></g>
<g><path style="opacity:1" fill="#d5b077" d="M 403.5,61.5 C 403.5,61.8333 403.5,62.1667 403.5,62.5C 401.833,62.5 400.167,62.5 398.5,62.5C 398.461,61.4168 398.127,60.4168 397.5,59.5C 398,59.1667 398.5,58.8333 399,58.5C 400.643,59.3146 402.143,60.3146 403.5,61.5 Z"/></g>
<g><path style="opacity:1" fill="#846c4c" d="M 385.5,58.5 C 386.675,58.281 387.675,58.6143 388.5,59.5C 388.376,60.1067 388.043,60.44 387.5,60.5C 386.295,59.3143 384.961,59.3143 383.5,60.5C 383.5,59.1667 384.167,58.5 385.5,58.5 Z"/></g>
<g><path style="opacity:1" fill="#4e3823" d="M 419.5,65.5 C 421.948,64.5269 424.615,64.1936 427.5,64.5C 427.205,66.7354 427.539,68.7354 428.5,70.5C 428.5,71.1667 428.167,71.5 427.5,71.5C 427.167,71.5 426.833,71.5 426.5,71.5C 426.5,69.5 426.5,67.5 426.5,65.5C 424.167,65.5 421.833,65.5 419.5,65.5 Z"/></g>
<g><path style="opacity:1" fill="#110d12" d="M 275.5,111.5 C 266.167,111.5 256.833,111.5 247.5,111.5C 244.889,97.005 242.223,82.505 239.5,68C 239.833,67.5 240.167,67 240.5,66.5C 252.417,81.3492 264.084,96.3492 275.5,111.5 Z"/></g>
<g><path style="opacity:1" fill="#846130" d="M 374.5,59.5 C 376.519,58.2203 377.852,58.2203 378.5,59.5C 377.195,61.3972 376.529,63.7305 376.5,66.5C 376.529,69.2695 377.195,71.6028 378.5,73.5C 378.077,74.6299 376.743,74.7966 374.5,74C 375.824,69.0671 375.824,64.2337 374.5,59.5 Z"/></g>
<g><path style="opacity:1" fill="#d49944" d="M 394.5,72.5 C 394.611,73.1174 394.944,73.6174 395.5,74C 393.833,74.6667 392.167,74.6667 390.5,74C 391.467,69.5986 391.8,65.0986 391.5,60.5C 391.56,59.9569 391.893,59.6236 392.5,59.5C 393.167,63.9822 393.834,68.3155 394.5,72.5 Z"/></g>
<g><path style="opacity:1" fill="#110d12" d="M 562.5,111.5 C 553.5,111.5 544.5,111.5 535.5,111.5C 546.784,96.3762 558.284,81.3762 570,66.5C 567.725,81.4817 565.225,96.4817 562.5,111.5 Z"/></g>
<g><path style="opacity:1" fill="#c49b4d" d="M 370.5,66.5 C 371.913,69.2186 372.58,72.2186 372.5,75.5C 372.158,76.3382 371.492,76.6716 370.5,76.5C 369.108,73.9933 368.108,71.3267 367.5,68.5C 368.71,68.0679 369.71,67.4013 370.5,66.5 Z"/></g>
<g><path style="opacity:1" fill="#c68d3c" d="M 423.5,58.5 C 424.29,59.4013 425.29,60.0679 426.5,60.5C 425.878,61.6266 425.045,62.6266 424,63.5C 421.049,60.819 418.382,61.1523 416,64.5C 415.797,70.1445 418.297,72.1445 423.5,70.5C 424.404,69.791 424.737,68.791 424.5,67.5C 422.585,67.7845 420.919,67.4511 419.5,66.5C 419.5,66.1667 419.5,65.8333 419.5,65.5C 421.833,65.5 424.167,65.5 426.5,65.5C 426.5,67.5 426.5,69.5 426.5,71.5C 421.262,75.9529 416.762,75.2863 413,69.5C 412.515,62.1498 416.015,58.4831 423.5,58.5 Z"/></g>
<g><path style="opacity:1" fill="#653a10" d="M 419.5,66.5 C 420.919,67.4511 422.585,67.7845 424.5,67.5C 424.737,68.791 424.404,69.791 423.5,70.5C 422.322,69.0014 420.655,68.0014 418.5,67.5C 418.624,66.8933 418.957,66.56 419.5,66.5 Z"/></g>
<g><path style="opacity:1" fill="#c89e4e" d="M 429.5,66.5 C 429.973,67.9063 430.973,68.573 432.5,68.5C 431.499,71.1716 430.499,73.8382 429.5,76.5C 428.508,76.6716 427.842,76.3382 427.5,75.5C 427.5,74.1667 427.5,72.8333 427.5,71.5C 428.167,71.5 428.5,71.1667 428.5,70.5C 428.232,68.901 428.566,67.5676 429.5,66.5 Z"/></g>
<g><path style="opacity:1" fill="#86551b" d="M 397.5,72.5 C 397.833,72.5 398.167,72.5 398.5,72.5C 399.167,73.8333 399.833,73.8333 400.5,72.5C 403.2,73.9416 402.866,74.6083 399.5,74.5C 397.024,74.7674 396.357,74.1007 397.5,72.5 Z"/></g>
<g><path style="opacity:1" fill="#dac38f" d="M 427.5,75.5 C 427.842,76.3382 428.508,76.6716 429.5,76.5C 424.2,79.2685 418.533,81.2685 412.5,82.5C 412.81,80.8564 413.81,79.8564 415.5,79.5C 419.421,77.9706 423.421,76.6373 427.5,75.5 Z"/></g>
<g><path style="opacity:1" fill="#7e5123" d="M 447.5,51.5 C 443.928,58.7237 439.594,65.3903 434.5,71.5C 433.999,74.1189 432.832,76.4522 431,78.5C 425.287,80.2346 419.787,82.2346 414.5,84.5C 411.167,87.5 407.833,90.5 404.5,93.5C 404.709,92.0783 405.209,90.745 406,89.5C 408.372,87.2968 410.539,84.9635 412.5,82.5C 418.533,81.2685 424.2,79.2685 429.5,76.5C 430.499,73.8382 431.499,71.1716 432.5,68.5C 435.464,66.0381 438.297,63.3714 441,60.5C 441.594,57.7811 440.76,57.1144 438.5,58.5C 438.5,57.8333 438.167,57.5 437.5,57.5C 440.494,55.0002 443.827,53.0002 447.5,51.5 Z"/></g>
<g><path style="opacity:1" fill="#7c5022" d="M 352.5,51.5 C 356.173,53.0002 359.506,55.0002 362.5,57.5C 361.833,57.5 361.5,57.8333 361.5,58.5C 359.24,57.1144 358.406,57.7811 359,60.5C 361.703,63.3714 364.536,66.0381 367.5,68.5C 368.108,71.3267 369.108,73.9933 370.5,76.5C 375.861,79.1259 381.528,81.2926 387.5,83C 390.754,85.7468 393.42,88.9135 395.5,92.5C 392.101,90.6117 389.101,88.1117 386.5,85C 382.979,83.3262 379.313,82.1596 375.5,81.5C 373.35,80.3299 371.016,79.3299 368.5,78.5C 367.183,75.5678 366.016,72.5678 365,69.5C 361.257,65.2678 357.757,60.9345 354.5,56.5C 354.107,54.7162 353.441,53.0495 352.5,51.5 Z"/></g>
<g><path style="opacity:1" fill="#110d12" d="M 800.5,80.5 C 800.5,90.8333 800.5,101.167 800.5,111.5C 794.5,111.5 788.5,111.5 782.5,111.5C 781.645,110.469 780.978,109.303 780.5,108C 786.816,98.5175 793.482,89.3509 800.5,80.5 Z"/></g>
<g><path style="opacity:1" fill="#110d12" d="M 414.5,84.5 C 415.675,84.281 416.675,84.6143 417.5,85.5C 423.51,94.1956 429.51,102.862 435.5,111.5C 417.5,111.5 399.5,111.5 381.5,111.5C 385.334,105.176 389.667,99.1759 394.5,93.5C 395.94,94.9524 397.606,95.9524 399.5,96.5C 401.411,95.925 403.078,94.925 404.5,93.5C 407.833,90.5 411.167,87.5 414.5,84.5 Z"/></g>
<g><path style="opacity:1" fill="#caaa6f" d="M 372.5,75.5 C 376.365,76.6799 380.199,78.0132 384,79.5C 384.945,79.0946 385.612,78.428 386,77.5C 390.688,82.6868 395.188,88.0201 399.5,93.5C 404.823,88.0089 409.989,82.3423 415,76.5C 415.483,77.448 415.649,78.448 415.5,79.5C 413.81,79.8564 412.81,80.8564 412.5,82.5C 410.539,84.9635 408.372,87.2968 406,89.5C 405.209,90.745 404.709,92.0783 404.5,93.5C 403.078,94.925 401.411,95.925 399.5,96.5C 398.5,94.8333 397.167,93.5 395.5,92.5C 393.42,88.9135 390.754,85.7468 387.5,83C 381.528,81.2926 375.861,79.1259 370.5,76.5C 371.492,76.6716 372.158,76.3382 372.5,75.5 Z"/></g>
<g><path style="opacity:1" fill="#ac864f" d="M 399.5,79.5 C 400.695,79.8656 401.361,80.699 401.5,82C 400.67,83.4651 400.504,84.9651 401,86.5C 402.113,84.6707 403.613,83.8374 405.5,84C 403.607,86.3031 401.607,88.4698 399.5,90.5C 397.712,88.4235 396.046,86.2568 394.5,84C 396.047,83.6666 397.38,84.1666 398.5,85.5C 398.465,83.5575 398.798,81.5575 399.5,79.5 Z"/></g>
</svg>
